<svg width="220" height="79" viewBox="0 0 220 79" fill="none" xmlns="http://www.w3.org/2000/svg">
<path d="M24.8321 9.875H0.733887V67.4792L24.8321 9.875Z" fill="#285430"/>
<path d="M41.7875 9.875H65.8543V67.4792L41.7875 9.875Z" fill="#285430"/>
<path d="M33.31 31.1058L48.6481 67.4792H38.5849L34.0008 55.8987H22.7759L33.31 31.1058Z" fill="#285430"/>
<path d="M105.168 46.5075L108.01 54.6515C108.104 54.8555 108.245 54.9497 108.496 54.9497H113.96C114.258 54.9497 114.305 54.8084 114.258 54.5103L102.97 23.174C102.923 22.9229 102.876 22.8759 102.625 22.8759H95.8429C95.6545 22.8759 95.5446 23.0171 95.5446 23.2211C95.4504 24.8687 95.3091 25.3708 95.105 25.8573L85.0419 54.4632C84.9948 54.8084 85.1047 54.9497 85.3872 54.9497H90.2697C90.568 54.9497 90.7093 54.8555 90.8191 54.5574L93.5037 46.5075H105.168ZM95.0579 41.1881C96.5336 36.7316 98.4803 31.0198 99.2653 27.756H99.3124C100.286 31.1768 102.578 37.9556 103.614 41.1881H95.0579Z" fill="#285430"/>
<path d="M128.769 55.4361C131.705 55.4361 134.829 54.9026 138 53.5374C138.252 53.4433 138.299 53.3335 138.299 53.0981C138.205 52.2193 138.095 50.9483 138.095 49.9754V20.4751C138.095 20.2868 138.095 20.1926 137.859 20.1926H132.537C132.333 20.1926 132.239 20.2868 132.239 20.5378V30.5334C131.407 30.4393 130.826 30.3922 130.135 30.3922C121.548 30.3922 116.273 36.0569 116.273 43.1339C116.273 51.3406 121.689 55.4361 128.769 55.4361ZM132.239 49.9754C131.36 50.2579 130.386 50.3677 129.397 50.3677C125.504 50.3677 122.317 48.1709 122.317 42.8357C122.317 38.1125 125.598 35.3194 129.947 35.3194C130.826 35.3194 131.595 35.4136 132.239 35.6646V49.9754Z" fill="#285430"/>
<path d="M155.277 30.3922C147.945 30.3922 143.408 36.0098 143.408 42.9456C143.408 49.1438 147.019 55.4361 155.167 55.4361C162.059 55.4361 166.894 50.3677 166.894 42.7886C166.894 36.104 162.797 30.3922 155.277 30.3922ZM154.978 35.3194C159.123 35.3194 160.881 38.8814 160.881 42.9456C160.881 47.9669 158.291 50.4619 155.277 50.4619C151.556 50.4619 149.358 47.3392 149.358 42.8357C149.358 38.2067 151.697 35.3194 154.978 35.3194Z" fill="#285430"/>
<path d="M172.396 20.1926C172.192 20.1926 172.051 20.2868 172.051 20.5378V53.9297C172.051 54.071 172.192 54.322 172.396 54.3691C174.736 55.0909 177.185 55.4361 179.712 55.4361C186.949 55.4361 193.983 50.9483 193.983 41.9099C193.983 35.3665 189.493 30.3922 182.46 30.3922C180.843 30.3922 179.335 30.6433 178.017 31.0827L177.954 20.5849C177.954 20.2397 177.86 20.1926 177.514 20.1926H172.396ZM187.97 42.5062C187.97 47.9198 184.265 50.4619 180.262 50.4619C179.43 50.4619 178.692 50.4148 178.017 50.2108V35.9628C178.786 35.6646 179.712 35.4136 181.423 35.4136C185.285 35.4136 187.97 37.8615 187.97 42.5062Z" fill="#285430"/>
<path d="M213.844 44.2637C216.231 44.2637 218.193 44.2166 218.868 44.0597C219.119 44.0126 219.214 43.9184 219.261 43.7145C219.402 43.1809 219.465 42.0668 219.465 40.7016C219.465 36.0569 216.67 30.3922 209.449 30.3922C202.07 30.3922 197.973 36.4021 197.973 43.1809C197.973 49.1908 201.144 55.4361 210.03 55.4361C213.358 55.4361 215.509 54.9026 217.361 54.0239C217.549 53.9297 217.644 53.7728 217.644 53.4904V49.4262C217.644 49.1909 217.502 49.1438 217.361 49.2379C215.509 50.0225 213.499 50.4148 211.301 50.4148C206.325 50.4148 204.064 47.6688 203.923 44.2637H213.844ZM203.923 40.0583C204.315 37.6732 205.822 35.084 209.197 35.084C212.918 35.084 213.892 38.2067 213.892 39.6189C213.892 39.666 213.892 39.87 213.892 40.0112C213.687 40.0583 213.059 40.0583 211.207 40.0583H203.923Z" fill="#285430"/>
</svg>
