<svg width="192" height="71" viewBox="0 0 192 71" fill="none" xmlns="http://www.w3.org/2000/svg">
<path d="M191.734 28.7501C166.077 11.177 132.549 0.509766 95.897 0.509766C59.2446 0.509766 25.7167 11.177 0 28.7501C25.5365 20.056 55.3992 14.6299 95.897 14.6299C136.395 14.6299 166.197 20.056 191.734 28.7501ZM81.176 37.9374C79.3133 37.9374 78.3519 39.4789 78.0515 41.3904C77.7511 43.4868 76.6695 50.8244 76.4292 52.7358C76.309 53.8457 76.1889 55.0173 75.1674 55.5105C74.1459 56.0038 72.824 55.2639 71.7425 54.2773L54.4378 39.1706C53.5371 38.3706 52.3844 37.9325 51.1931 37.9374C48.7296 37.9374 46.3863 39.4789 46.3863 43.3019V66.9793C46.2661 68.5208 47.4678 69.8773 48.97 70.0007H49.1502C50.7125 70.0623 52.0343 68.8291 52.1545 67.1643C52.1545 67.1643 53.9571 55.8805 54.1373 54.6473C54.3777 53.1675 54.618 52.0576 56 51.626C57.2618 51.256 58.4034 51.9959 60.206 53.5374C62.0086 55.0789 76.5494 68.6441 76.5494 68.6441C77.5107 69.5691 78.7725 70.0623 80.0944 70.0007C81.5365 70.0007 84.1202 69.3841 84.1202 64.8829V41.2671C84.1202 39.109 82.7983 37.9374 81.176 37.9374ZM185.725 63.1564C172.987 65.9928 158.386 62.9714 158.386 53.7224C158.386 46.7548 164.695 43.9185 169.682 43.4868C174.91 43.0552 178.996 44.1651 181.099 46.4465C182.421 47.8647 182.06 49.7762 179.476 49.8995C177.073 50.0228 172.627 50.2078 168.961 50.3311C166.858 50.3928 165.717 51.5643 165.717 53.1058C165.717 54.339 166.618 55.7572 169.021 55.7572C172.506 55.7572 181.279 55.8188 185.665 55.8188C188.549 55.8188 189.991 54.154 189.991 50.7627C189.991 45.3366 185.245 37.1975 171.305 37.1975C158.687 37.1975 149.554 43.6718 149.554 54.2157C149.554 69.1991 171.004 73.7619 186.747 68.2125C188.249 67.6576 189.571 66.6094 189.15 64.8829C188.73 63.2797 187.528 62.7248 185.725 63.1564ZM37.9743 63.1564C25.2361 65.9928 10.6953 62.9714 10.6953 53.7224C10.6953 46.7548 17.0043 43.9185 21.9914 43.4868C27.2189 43.0552 31.3047 44.1651 33.4077 46.4465C34.7296 47.8647 34.3691 49.7762 31.7854 49.8995C29.382 50.0228 24.9957 50.2078 21.2704 50.3311C19.1674 50.3928 18.0258 51.5643 18.0258 53.1058C18.0258 54.339 18.927 55.7572 21.3305 55.7572C24.8155 55.7572 33.588 55.8188 37.9743 55.8188C40.8584 55.8188 42.3004 54.154 42.3004 50.7627C42.3004 45.3366 37.5536 37.1975 23.6137 37.1975C10.9957 37.1975 1.86266 43.6718 1.86266 54.2157C1.86266 69.1991 23.3133 73.7619 39.0558 68.2125C40.5579 67.6576 41.8798 66.6094 41.4592 64.8829C40.9785 63.2797 39.7768 62.7248 37.9743 63.1564ZM136.635 48.7279C136.936 56.8671 137.657 63.6497 137.897 66.0544C138.197 69.1374 139.7 70.0007 141.262 70.0007C142.824 70.0007 144.326 69.1991 144.567 66.1161C144.807 63.5264 145.528 55.4489 145.888 47.4331C145.949 47.1864 145.768 46.9398 145.528 46.8781H145.288L136.996 48.2347C136.755 48.2963 136.635 48.4813 136.635 48.7279ZM141.262 37.1359C138.738 36.9509 136.575 38.924 136.395 41.5137V42.0687C136.395 42.4386 136.455 43.3635 136.515 44.5967C136.515 44.905 136.755 45.09 137.056 45.09H137.116L145.768 43.6718C146.009 43.6102 146.189 43.4252 146.189 43.1785C146.189 42.7469 146.189 42.3153 146.249 42.1303C146.369 39.4789 144.386 37.2592 141.803 37.1975C141.562 37.1358 141.382 37.1359 141.262 37.1359ZM128.524 50.2078C125.64 50.2078 116.747 50.2694 111.039 50.2694C108.275 50.2694 107.614 51.8109 107.614 53.0441C107.614 54.154 108.335 55.5722 110.918 55.6955C114.824 55.8805 119.871 56.1272 122.155 56.2505C125.279 56.4355 125.279 58.0386 124.258 59.4568C122.155 62.2932 117.047 64.143 111.7 64.143C104.73 64.143 97.0987 60.0734 97.0987 53.6607C97.0987 47.6181 103.648 40.9588 123.116 43.7951C124.858 44.0418 126.481 43.7335 126.961 42.1303C127.442 40.4038 126.3 39.294 124.077 38.6774C120.073 37.6317 115.951 37.1341 111.82 37.1975C98.721 37.1975 88.206 43.6102 88.206 53.969C88.206 65.0679 98.661 70.4323 111.7 70.4323C126.24 70.4323 133.391 62.2932 133.391 55.2022C133.33 51.5643 131.528 50.2078 128.524 50.2078Z" fill="#285430"/>
</svg>
