<svg width="21" height="20" viewBox="0 0 21 20" fill="none" xmlns="http://www.w3.org/2000/svg">
<path d="M7.02399 16.104C7.02399 16.1867 6.92661 16.2529 6.80383 16.2529C6.66411 16.2653 6.56673 16.1991 6.56673 16.104C6.56673 16.0213 6.66411 15.9551 6.7869 15.9551C6.91391 15.9427 7.02399 16.0089 7.02399 16.104ZM5.70726 15.9179C5.67762 16.0006 5.7623 16.0957 5.88931 16.1205C5.9994 16.1619 6.12641 16.1205 6.15181 16.0378C6.17722 15.9551 6.09677 15.86 5.96976 15.8228C5.85968 15.7938 5.7369 15.8352 5.70726 15.9179ZM7.57863 15.8476C7.45585 15.8765 7.37117 15.9551 7.38387 16.0502C7.39657 16.1329 7.50665 16.1867 7.63367 16.1577C7.75645 16.1288 7.84113 16.0502 7.82843 15.9675C7.81573 15.8889 7.70141 15.8352 7.57863 15.8476ZM10.3645 0C4.49214 0 0 4.35477 0 10.0908C0 14.6772 2.95524 18.6019 7.17641 19.9832C7.71835 20.0783 7.90887 19.7516 7.90887 19.4827C7.90887 19.2263 7.89617 17.812 7.89617 16.9435C7.89617 16.9435 4.93246 17.5638 4.31008 15.7111C4.31008 15.7111 3.82742 14.5076 3.13306 14.1975C3.13306 14.1975 2.16351 13.5482 3.20081 13.5606C3.20081 13.5606 4.25504 13.6433 4.83508 14.6276C5.7623 16.2239 7.31613 15.7649 7.92157 15.4919C8.01895 14.8302 8.29415 14.3712 8.59899 14.0982C6.23226 13.8418 3.84436 13.5068 3.84436 9.52839C3.84436 8.3911 4.16613 7.82039 4.84355 7.09253C4.73347 6.82372 4.37359 5.71538 4.95363 4.28447C5.83851 4.01565 7.875 5.40107 7.875 5.40107C8.72177 5.16948 9.63206 5.04955 10.5339 5.04955C11.4357 5.04955 12.346 5.16948 13.1927 5.40107C13.1927 5.40107 15.2292 4.01152 16.1141 4.28447C16.6942 5.71951 16.3343 6.82372 16.2242 7.09253C16.9016 7.82453 17.3165 8.39524 17.3165 9.52839C17.3165 13.5192 14.8228 13.8377 12.456 14.0982C12.8456 14.4249 13.1758 15.0453 13.1758 16.0171C13.1758 17.4108 13.1631 19.1354 13.1631 19.4745C13.1631 19.7433 13.3579 20.07 13.8956 19.9749C18.1294 18.6019 21 14.6772 21 10.0908C21 4.35477 16.2369 0 10.3645 0ZM4.11532 14.2636C4.06028 14.305 4.07298 14.4001 4.14496 14.4787C4.2127 14.5449 4.31008 14.5738 4.36512 14.52C4.42016 14.4787 4.40746 14.3836 4.33548 14.305C4.26774 14.2388 4.17036 14.2099 4.11532 14.2636ZM3.65806 13.9287C3.62843 13.9824 3.67077 14.0486 3.75544 14.0899C3.82319 14.1313 3.90786 14.1189 3.9375 14.061C3.96714 14.0072 3.9248 13.9411 3.84012 13.8997C3.75544 13.8749 3.6877 13.8873 3.65806 13.9287ZM5.02984 15.4009C4.9621 15.4547 4.9875 15.5788 5.08488 15.6573C5.18226 15.7524 5.30504 15.7649 5.36008 15.6987C5.41512 15.6449 5.38972 15.5209 5.30504 15.4423C5.2119 15.3472 5.08488 15.3348 5.02984 15.4009ZM4.54718 14.793C4.47944 14.8343 4.47944 14.9419 4.54718 15.037C4.61492 15.1321 4.72923 15.1735 4.78427 15.1321C4.85202 15.0783 4.85202 14.9708 4.78427 14.8757C4.725 14.7806 4.61492 14.7392 4.54718 14.793Z" fill="#E5D9B6"/>
</svg>
