<svg width="22" height="22" viewBox="0 0 22 22" fill="none" xmlns="http://www.w3.org/2000/svg">
<path d="M4.92545 22H0.363393V7.31205H4.92545V22ZM2.64196 5.30848C1.18348 5.30848 0 4.10045 0 2.64196C0 1.94127 0.278349 1.26928 0.773813 0.773813C1.26928 0.278349 1.94127 0 2.64196 0C3.34266 0 4.01465 0.278349 4.51012 0.773813C5.00558 1.26928 5.28393 1.94127 5.28393 2.64196C5.28393 4.10045 4.10045 5.30848 2.64196 5.30848ZM21.9951 22H17.4429V14.85C17.4429 13.146 17.4085 10.9607 15.071 10.9607C12.6991 10.9607 12.3357 12.8121 12.3357 14.7272V22H7.77857V7.31205H12.154V9.31562H12.2179C12.8268 8.16161 14.3147 6.94375 16.5344 6.94375C21.1504 6.94375 22 9.98348 22 13.9317V22H21.9951Z" fill="#E5D9B6"/>
</svg>
