<svg width="156" height="77" viewBox="0 0 156 77" fill="none" xmlns="http://www.w3.org/2000/svg">
<path fill-rule="evenodd" clip-rule="evenodd" d="M66.8678 24.4313C69.6998 23.8967 72.5319 23.334 75.3355 22.7993C75.3072 35.2642 75.3072 47.701 75.3355 60.1377C72.5319 59.5749 69.6998 58.9841 66.8962 58.4494C66.8112 57.3521 66.8678 56.2547 66.8678 55.1574C66.8395 44.9435 66.8395 34.7015 66.8678 24.4313ZM135.374 29.9462C132.995 30.0025 130.56 30.7341 128.719 32.2535C127.19 33.4916 126.085 35.1798 125.462 37.0369C124.782 39.0346 124.641 41.2012 124.896 43.3115C125.179 45.7313 126.142 48.123 127.841 49.8957C129.172 51.3025 130.985 52.2873 132.882 52.7094C135.261 53.244 137.838 53.1596 140.075 52.1185C141.718 51.387 143.077 50.0926 144.04 48.5732C145.116 46.8568 145.654 44.8591 145.824 42.8332C146.023 40.554 145.768 38.2186 144.918 36.0802C144.182 34.1669 142.851 32.4505 141.067 31.3531C139.367 30.312 137.357 29.8618 135.374 29.9462ZM134.128 22.0959C138.235 21.8145 142.539 22.5742 146.079 24.7408C148.062 25.9507 149.761 27.5546 151.092 29.4398C152.253 31.128 153.103 33.0132 153.697 34.9828C154.32 37.0931 154.547 39.316 154.575 41.5107C154.575 45.5344 153.641 49.6424 151.403 53.0471C149.449 56.0859 146.476 58.4494 143.077 59.6875C140.868 60.5035 138.546 60.8974 136.196 60.9537C131.778 61.0381 127.218 59.9689 123.621 57.3802C120.563 55.2136 118.326 52.0341 117.193 48.4888C116.4 46.1253 116.088 43.5929 116.117 41.0887C116.145 36.7274 117.419 32.2816 120.166 28.8489C122.404 26.007 125.604 23.9811 129.087 22.9682C130.701 22.4617 132.401 22.1803 134.128 22.0959ZM12.7197 23.756C14.7588 22.5742 17.1094 22.0115 19.4599 22.0396C23.1982 22.1803 26.7948 24.0937 28.9755 27.1325C30.08 25.6412 31.6093 24.4876 33.2518 23.6716C36.9618 21.8989 41.4647 21.6176 45.2879 23.1651C47.0721 23.8967 48.6863 25.0222 49.9324 26.4853C51.2068 27.9766 52.0564 29.7774 52.5662 31.6345C53.1042 33.576 53.2458 35.6019 53.1892 37.5996C53.1892 45.1123 53.1892 52.6531 53.1892 60.1658C50.3855 59.6031 47.5535 59.0122 44.7215 58.4776C44.6932 51.2744 44.7215 44.0712 44.6932 36.868C44.7215 35.2079 44.1268 33.5197 42.9373 32.3661C41.6629 31.0717 39.7938 30.4527 37.9813 30.4809C36.3671 30.4527 34.7245 30.9311 33.4501 31.944C32.0058 33.0695 31.2411 34.9266 31.2411 36.7555C31.2411 44.5496 31.2411 52.3718 31.2411 60.1658C28.4091 59.6031 25.5771 59.0122 22.7451 58.4776C22.7168 56.1703 22.7451 53.8349 22.7168 51.4995C22.7168 46.6599 22.7168 41.8202 22.7168 36.9525C22.7734 35.2924 22.207 33.576 21.0175 32.3942C19.9697 31.325 18.5254 30.706 17.081 30.5371C15.6934 30.3964 14.2774 30.509 12.9746 31.0436C11.6153 31.6064 10.4541 32.6756 9.83109 33.998C9.40629 34.8984 9.20805 35.8832 9.20805 36.868C9.20805 42.9457 9.20805 49.0234 9.20805 55.1011C9.23637 56.7893 9.17973 58.4776 9.23637 60.1658C6.40436 59.6312 3.60066 59.0122 0.79697 58.5057C0.740329 57.5209 0.82529 56.508 0.740329 55.5513C0.768649 54.4258 0.768649 53.3003 0.740329 52.1748C0.82529 51.1337 0.740329 50.0645 0.768649 49.0234C0.768649 46.0408 0.768649 43.0583 0.768649 40.0757C0.740329 38.2186 0.79697 36.3334 0.740329 34.4764C0.768649 33.4353 0.768649 32.3661 0.740329 31.325C0.79697 29.2428 0.768649 27.1888 0.768649 25.1066C0.79697 24.9096 0.627049 24.6001 0.85361 24.4876C3.6573 23.953 6.43268 23.4184 9.23637 22.8838C9.20805 24.1499 9.23637 25.4161 9.23637 26.6823C10.2276 25.5005 11.3887 24.4876 12.7197 23.756ZM105.1 22.6024C106.459 22.3773 107.847 22.1522 109.206 21.9271C109.206 24.8534 109.206 27.7797 109.206 30.706C107.847 30.9592 106.488 31.2124 105.128 31.4375C103.089 31.7752 100.965 32.3661 99.436 33.8292C98.1899 34.9828 97.5952 36.6711 97.4819 38.3312C97.3969 39.513 97.4536 40.6947 97.4536 41.9046C97.4536 47.9823 97.4536 54.06 97.4536 60.1377C95.103 59.6594 92.7524 59.181 90.3735 58.7308C89.9204 58.6464 89.4956 58.5339 89.0142 58.4776C88.9009 57.8304 88.9859 57.1833 88.9575 56.5361C88.9575 50.0645 88.9575 43.621 88.9575 37.1494C89.0142 35.1235 89.354 33.0695 90.2036 31.1843C91.0249 29.2991 92.4692 27.6953 94.1684 26.5135C96.434 24.9659 99.0678 24.0374 101.73 23.334C102.863 23.0807 103.939 22.7712 105.1 22.6024ZM70.2662 6.47964C71.6256 6.31082 73.0983 6.4515 74.2594 7.26749C75.5904 8.13975 76.3268 9.71544 76.3551 11.263C76.44 11.7132 76.3268 12.1915 76.3268 12.6417C76.1852 14.0486 75.4488 15.3992 74.2311 16.187C72.9567 17.0312 71.3141 17.1719 69.8131 16.8623C68.567 16.6091 67.4059 15.8213 66.6979 14.7239C65.8766 13.4296 65.735 11.7976 66.0465 10.3063C66.3298 8.89946 67.2926 7.60514 68.5954 6.98611C69.1334 6.73288 69.6998 6.56405 70.2662 6.47964Z" fill="#285430"/>
</svg>
