<svg width="231" height="79" viewBox="0 0 231 79" fill="none" xmlns="http://www.w3.org/2000/svg">
<path d="M35.3532 5.06763C16.2995 5.06763 0.8526 20.5421 0.8526 39.6303C0.8526 58.7194 16.2995 74.1926 35.3532 74.1926C54.4091 74.1926 69.8543 58.7194 69.8543 39.6303C69.8543 20.5433 54.4091 5.06928 35.3528 5.06928L35.3532 5.06763ZM51.175 54.917C50.557 55.9323 49.2304 56.2542 48.217 55.631C40.1166 50.6741 29.9192 49.5515 17.9099 52.3003C16.7526 52.5644 15.5991 51.838 15.3354 50.6782C15.0705 49.5185 15.7927 48.3628 16.9529 48.0987C30.0951 45.0907 41.3682 46.3859 50.4623 51.9536C51.4757 52.5768 51.7971 53.9017 51.175 54.917ZM55.3978 45.5059C54.6192 46.7738 52.963 47.1742 51.6982 46.3941C42.4245 40.6836 28.2881 39.0298 17.3191 42.3655C15.8965 42.796 14.394 41.9928 13.9623 40.5701C13.5338 39.145 14.336 37.6426 15.7561 37.2093C28.2857 33.4006 43.8623 35.2455 54.512 41.8017C55.7768 42.5818 56.1765 44.2409 55.3978 45.5063V45.5059ZM55.7604 35.7061C44.641 29.0897 26.2954 28.4813 15.679 31.7092C13.9742 32.2272 12.1714 31.2631 11.6548 29.5552C11.1381 27.8465 12.0997 26.0417 13.8057 25.5224C25.9926 21.8161 46.2518 22.5322 59.0537 30.1458C60.5904 31.0576 61.0931 33.0415 60.1826 34.5756C59.2762 36.1118 57.2905 36.6182 55.762 35.7061H55.7604ZM94.7174 36.974C88.7601 35.5509 87.7013 34.5521 87.7013 32.4534C87.7013 30.4706 89.5635 29.1363 92.3361 29.1363C95.0223 29.1363 97.6837 30.1495 100.477 32.2355C100.559 32.2986 100.666 32.3238 100.769 32.3073C100.877 32.2916 100.967 32.2342 101.029 32.148L103.938 28.0405C104.057 27.8713 104.024 27.6381 103.863 27.5089C100.539 24.8373 96.7979 23.5385 92.4227 23.5385C85.9916 23.5385 81.4969 27.4053 81.4969 32.9379C81.4969 38.8709 85.3736 40.9717 92.0725 42.5933C97.7702 43.9087 98.7342 45.0107 98.7342 46.9802C98.7342 49.1635 96.7897 50.5214 93.6586 50.5214C90.1815 50.5214 87.3429 49.3451 84.1707 46.5964C84.0924 46.5262 83.9853 46.4973 83.8864 46.5014C83.7793 46.5097 83.6845 46.5592 83.6186 46.6376L80.3557 50.5255C80.2197 50.6906 80.2362 50.93 80.3928 51.0703C84.0841 54.3722 88.6242 56.1139 93.5268 56.1139C100.456 56.1139 104.935 52.3209 104.935 46.4478C104.947 41.4922 101.985 38.7475 94.7298 36.9794L94.7174 36.974ZM120.615 31.0885C117.611 31.0885 115.148 32.2739 113.112 34.7028V31.9689C113.112 31.753 112.939 31.5772 112.725 31.5772H107.39C107.176 31.5772 107.003 31.753 107.003 31.9689V62.3461C107.003 62.5607 107.176 62.7382 107.39 62.7382H112.725C112.939 62.7382 113.112 62.5607 113.112 62.3461V52.7584C115.148 55.0408 117.611 56.1593 120.615 56.1593C126.197 56.1593 131.849 51.8545 131.849 43.6251C131.858 35.3941 126.205 31.0881 120.619 31.0881L120.615 31.0885ZM125.645 43.6251C125.645 47.8139 123.07 50.7402 119.379 50.7402C115.733 50.7402 112.981 47.6818 112.981 43.6251C112.981 39.568 115.733 36.5105 119.379 36.5105C123.008 36.5101 125.645 39.5016 125.645 43.6247V43.6251ZM146.331 31.0885C139.141 31.0885 133.51 36.6339 133.51 43.7147C133.51 50.7195 139.104 56.2047 146.244 56.2047C153.458 56.2047 159.106 50.6782 159.106 43.6251C159.106 36.596 153.495 31.0893 146.331 31.0893V31.0885ZM146.331 50.7814C142.507 50.7814 139.623 47.7025 139.623 43.6231C139.623 39.5251 142.408 36.5514 146.244 36.5514C150.092 36.5514 152.992 39.6291 152.992 43.7126C152.992 47.8098 150.191 50.7814 146.331 50.7814ZM174.457 31.5772H168.586V25.5654C168.586 25.3499 168.413 25.1741 168.199 25.1741H162.863C162.649 25.1741 162.472 25.3499 162.472 25.5654V31.5772H159.909C159.695 31.5772 159.522 31.753 159.522 31.9689V36.5613C159.522 36.7767 159.695 36.953 159.909 36.953H162.472V48.8375C162.472 53.6375 164.857 56.0726 169.566 56.0726C171.478 56.0726 173.064 55.6764 174.56 54.8262C174.683 54.7601 174.757 54.6281 174.757 54.4877V50.1128C174.757 49.9807 174.687 49.8528 174.572 49.7826C174.457 49.7083 174.312 49.7042 174.193 49.7661C173.167 50.282 172.174 50.5214 171.062 50.5214C169.352 50.5214 168.586 49.7414 168.586 47.9996V36.955H174.457C174.671 36.955 174.844 36.7792 174.844 36.5633V31.9713C174.852 31.7555 174.679 31.5797 174.461 31.5797L174.457 31.5772ZM194.907 31.6007V30.8623C194.907 28.6901 195.74 27.7215 197.602 27.7215C198.714 27.7215 199.608 27.9427 200.609 28.277C200.733 28.3158 200.861 28.2964 200.959 28.2225C201.062 28.1486 201.12 28.0302 201.12 27.9047V23.4019C201.12 23.2297 201.013 23.0774 200.844 23.0267C199.789 22.7118 198.438 22.3886 196.411 22.3886C191.488 22.3886 188.88 25.1679 188.88 30.4232V31.5541H186.318C186.103 31.5541 185.926 31.7299 185.926 31.9453V36.5613C185.926 36.7767 186.103 36.953 186.318 36.953H188.88V55.2802C188.88 55.4989 189.057 55.6723 189.271 55.6723H194.602C194.821 55.6723 194.994 55.4989 194.994 55.2802V36.9542H199.975L207.605 55.2802C206.739 57.2035 205.887 57.5873 204.725 57.5873C203.786 57.5873 202.793 57.3067 201.783 56.7495C201.689 56.7 201.573 56.6917 201.474 56.7206C201.371 56.7577 201.285 56.832 201.244 56.9311L199.435 60.9057C199.349 61.0955 199.423 61.3143 199.604 61.4133C201.491 62.4369 203.192 62.8744 205.298 62.8744C209.236 62.8744 211.415 61.0336 213.331 56.0891L222.584 32.1356C222.634 32.0151 222.617 31.8789 222.543 31.772C222.473 31.6659 222.354 31.6019 222.226 31.6019H216.672C216.503 31.6019 216.355 31.708 216.302 31.8644L210.612 48.14L204.383 31.8537C204.325 31.7022 204.181 31.6019 204.02 31.6019H194.907V31.6007ZM183.051 31.5772H177.715C177.501 31.5772 177.324 31.753 177.324 31.9689V55.2802C177.324 55.4989 177.501 55.6723 177.715 55.6723H183.051C183.265 55.6723 183.442 55.4989 183.442 55.2802V31.9705C183.442 31.7546 183.269 31.5788 183.051 31.5788V31.5772ZM180.414 20.9622C178.3 20.9622 176.587 22.6759 176.587 24.7927C176.587 26.9109 178.3 28.6266 180.414 28.6266C182.527 28.6266 184.237 26.9109 184.237 24.7927C184.237 22.6763 182.523 20.9622 180.414 20.9622ZM227.141 39.0727C225.032 39.0727 223.388 37.3744 223.388 35.312C223.388 33.2496 225.052 31.5318 227.161 31.5318C229.271 31.5318 230.915 33.2297 230.915 35.2905C230.915 37.3529 229.25 39.0727 227.141 39.0727ZM227.161 31.9057C225.238 31.9057 223.783 33.4369 223.783 35.312C223.783 37.1862 225.229 38.6967 227.141 38.6967C229.065 38.6967 230.519 37.1668 230.519 35.2905C230.519 33.4163 229.073 31.9057 227.161 31.9057ZM227.994 35.6772L229.057 37.1663H228.158L227.203 35.8002H226.383V37.1663H225.633V33.219H227.388C228.307 33.219 228.908 33.6883 228.908 34.4782C228.912 35.1254 228.537 35.5208 227.998 35.6772H227.994ZM227.359 33.8963H226.383V35.1448H227.359C227.845 35.1448 228.138 34.9058 228.138 34.5199C228.138 34.1138 227.845 33.8963 227.359 33.8963Z" fill="#285430"/>
</svg>
