<svg width="26" height="18" viewBox="0 0 26 18" fill="none" xmlns="http://www.w3.org/2000/svg">
<path d="M25.4573 2.81719C25.1575 1.70625 24.2768 0.834375 23.1582 0.539062C21.1304 0 13 0 13 0C13 0 4.86965 0 2.84182 0.539062C1.72318 0.834375 0.842549 1.70625 0.542658 2.81719C0 4.82812 0 9.01875 0 9.01875C0 9.01875 0 13.2094 0.542658 15.2203C0.842549 16.3313 1.72318 17.1656 2.84182 17.4609C4.86965 18 13 18 13 18C13 18 21.1304 18 23.1582 17.4609C24.2768 17.1656 25.1575 16.3266 25.4573 15.2203C26 13.2094 26 9.01875 26 9.01875C26 9.01875 26 4.82812 25.4573 2.81719ZM10.3438 12.825V5.2125L17.1366 9.01875L10.3438 12.825Z" fill="#E5D9B6"/>
</svg>
